PathFileType	4	(X/Y/Z)	OpenSim_Sub06_CSBaseline_Accel.trc
DataRate	CameraRate	NumFrames	NumMarkers	Units	OrigDataRate	OrigDataStartFrame	OrigNumFrames
100	100	27	8	m	100	5308	8492
Frame#	Time	torso_imu_offset_imu	pelvis_imu_offset_imu	tibia_r_imu_offset_imu	femur_r_imu_offset_imu	tibia_l_imu_offset_imu	femur_l_imu_offset_imu	toes_r_imu_offset_imu	toes_l_imu_offset_imu
				X1	Y1	Z1	X2	Y2	Z2	X3	Y3	Z3	X4	Y4	Z4	X5	Y5	Z5	X6	Y6	Z6	X7	Y7	Z7	X8		Y8	Z8	

5308	53.07000000	10.04515129	-1.71815362	5.53778185	8.59747181	-4.01545215	5.19295282	6.52179029	7.62037348	-6.73419104	2.97102270	5.59328514	0.98772897	16.38543772	-3.31777446	0.45171734	12.72682622	0.80565288	0.42427419	5.33945125	-3.77357454	8.01330351	7.40203712	-0.49022887	14.42403724
5309	53.08000000	9.49658583	-1.83251377	5.06565225	8.29203223	-4.72604086	5.00633025	11.34746781	8.87871054	-5.21620378	5.16252810	2.59230919	-0.30585451	15.52996723	-3.76901099	0.15711012	13.04518861	0.32423232	-0.13182793	5.29342150	-4.93645703	7.25042933	8.14289976	-2.52040003	13.12393765
5310	53.09000000	8.91917519	-1.73753730	4.94369251	8.82782323	-4.73331474	4.79307731	10.79423911	12.61524231	-4.54217104	7.08492913	-0.91238013	-2.02141224	13.15797988	-4.96620637	0.93748540	12.40222096	0.33283073	-0.10546167	6.60720959	-6.36271116	6.63326149	7.72180910	-1.14968519	12.26718314
5311	53.10000000	8.79424889	-1.58441650	5.06444079	8.92446189	-3.68591246	4.93045269	9.31235359	13.15423258	-4.09728511	9.43299901	-2.75859555	-3.62111546	10.19024885	-6.93937978	2.08688941	12.31650898	-0.53456565	-0.10936674	4.87404639	-3.68270395	8.29585744	9.19184612	0.15225869	12.58338241
5312	53.11000000	8.94422318	-1.33032087	5.24767717	8.62238023	-1.91284532	5.51292141	9.62984215	9.87701456	-1.65459798	12.06071492	-4.38293668	-5.31980878	7.12702468	-8.15540249	2.82172458	12.20364707	-1.37273836	-0.24749906	5.11369949	-3.57115542	8.14125908	10.13723254	1.87043379	11.97682852
5313	53.12000000	9.00444859	-0.96625483	5.67320906	8.51425761	-0.02076181	6.04660718	10.71576550	6.69038204	0.60479796	11.34264054	-6.63618362	-6.08903693	4.90777198	-7.50112770	2.17143494	12.54749112	-1.89402987	0.00413970	4.43706819	-2.77878661	8.89092250	9.71605912	3.79831863	11.58527357
5314	53.13000000	8.97801582	-0.79791184	5.83474237	8.67338008	1.48279999	6.64418625	10.95171208	5.68300708	1.00795859	9.18783497	-5.15499954	-4.67980670	3.75457320	-6.05022299	1.54061101	12.38487166	-2.21372654	0.10424516	4.85900940	-2.22414354	8.91314909	10.42923759	4.09384870	9.24459905
5315	53.14000000	8.90616176	-0.87393461	5.92391117	8.99049193	2.38958283	7.37750819	10.37021169	4.14214181	1.51073698	8.02359457	-2.12732807	-2.06301379	3.94503573	-5.51669250	1.84321418	11.98231343	-2.29915474	-0.07403091	4.24594399	-2.10134217	9.01159272	7.86326002	3.82600112	8.61653477
5316	53.15000000	8.68389066	-0.95606831	6.13301822	9.17330778	2.64853584	7.72303318	9.96523390	0.63260582	1.85727952	7.82855079	-1.54663225	-0.37034509	4.28626386	-6.82743979	2.14031318	11.25919278	-1.41238679	0.19510052	4.42496494	-2.13383282	8.97490623	18.88758511	7.33869622	27.69896934
5317	53.16000000	8.56253807	-1.02697189	6.29155844	9.36834867	2.42210659	7.38072554	10.58574158	-3.83029384	2.10184138	8.58903336	-1.79468336	0.07704342	4.85673683	-9.25771175	2.24013104	10.88369883	-0.38404946	0.54683890	4.73011396	-1.91992915	8.93794512	28.91476152	6.76098553	27.04228227
5318	53.17000000	8.46854811	-1.20241358	6.15651206	9.09322520	1.93659872	6.49706414	11.18985643	-6.07149424	2.04371507	9.50750526	-2.00975645	-0.00402150	4.44983690	-9.80846415	2.35491890	10.26756714	0.53585903	0.60126128	4.60964179	-1.94857839	8.85281184	-2.52719705	8.31159606	14.94627473
5319	53.18000000	8.81838312	-1.19701391	6.17739636	8.17484207	1.39383375	5.72720958	11.38593040	-4.76709327	1.52483397	10.14459725	-2.06998569	-0.14737049	3.85179625	-8.32219745	2.10771317	10.11013830	1.07502053	0.71887314	5.18513696	-1.79653570	8.71259625	-9.76847037	9.03250770	10.85522518
5320	53.19000000	9.13411360	-0.92503688	6.25717009	7.55952488	1.24257281	5.15328199	10.60248698	-1.68556699	0.94241837	10.09954396	-1.68327933	-0.21607032	3.56106397	-6.29342384	2.65851532	9.95878386	0.76047025	0.70497812	4.88762604	-2.12831360	8.60343800	-3.30473996	3.21998426	8.97739761
5321	53.20000000	8.99635389	-0.54125961	6.16014554	7.16298526	1.23038029	4.85284440	9.70738340	1.28994286	0.70663896	9.70315238	-0.64691427	-0.17702446	2.84819546	-4.77681165	4.06232382	10.36079231	0.35030856	1.06657789	4.72080565	-2.28342544	8.62587036	0.52867925	1.33228239	9.97327222
5322	53.21000000	8.68822241	-0.36862325	5.93624602	7.17623527	1.50282292	4.91753920	9.31254381	3.53255202	0.57506811	9.15768806	0.57044045	-0.16006057	1.49980579	-3.74091589	5.34270655	10.25880988	0.22877555	1.07642227	4.79334841	-2.33233733	8.67951514	1.53767256	0.65061048	11.07666678
5323	53.22000000	8.47571683	-0.38496692	5.92063960	7.51741723	1.64441759	5.05752673	9.51422891	5.37063416	0.60807487	8.81447723	1.24510499	-0.22159484	0.89951858	-3.80412218	5.99124498	10.13876051	0.27451902	0.93662798	4.84262848	-2.16858255	8.40804315	2.04460397	0.68418037	11.24145751
5324	53.23000000	8.32882437	-0.41623422	5.95462150	7.88673357	1.67842588	5.23917890	9.56144722	6.62235675	0.75722361	8.95168421	1.26109704	-0.35574121	0.96896948	-4.31621669	5.89673807	10.39828053	0.54882100	0.86073611	5.06279244	-1.97934747	8.35757822	0.61083354	0.40871785	10.26228424
5325	53.24000000	8.34922906	-0.57093606	5.86826284	8.20694685	1.59949128	5.13597142	9.39709242	6.85199108	0.80910885	9.23158612	1.05906402	-0.53888918	0.99415665	-4.46563180	5.05648408	10.02462374	1.00763447	0.64331675	4.84094463	-2.12795779	8.40680559	-0.22271256	-0.32518551	9.32461445
5326	53.25000000	8.40065799	-0.70795995	5.81080359	8.09790043	1.44640383	4.95582554	9.41550710	5.92507422	0.99446324	9.50838288	0.39626440	-0.67590322	2.23979232	-4.68218422	3.60462568	9.44742751	1.36194077	0.00727520	4.57033887	-2.21606752	8.51736822	0.73256180	-0.88047066	9.21160455
5327	53.26000000	8.43548383	-0.79732860	5.83444371	7.90351475	1.36920913	4.70376967	9.50642153	4.16078757	1.09066555	9.68015390	-0.07623623	-0.81145573	3.60047892	-4.78224586	2.15669686	9.44318990	2.36147608	1.23794356	4.64908583	-2.39597203	8.47405719	2.18704052	-1.15413374	9.87908357
5328	53.27000000	8.40760358	-0.84484438	5.92047165	7.94410500	1.24717958	4.83198114	9.58189270	2.35351720	1.27162984	9.65616942	-0.36085744	-0.93092839	5.20286387	-4.65027406	0.95340375	9.10353986	2.58224754	1.69093385	4.95540746	-2.03392676	8.49184592	3.25047182	-1.78885145	10.25991380
5329	53.28000000	8.35703364	-0.72807008	5.91115194	8.23070957	1.41179940	4.88698167	9.75871507	0.87527562	1.27886344	9.44711105	-0.73751271	-1.15305519	5.96567662	-4.96412448	0.63638775	8.62298903	2.47686773	1.55988078	5.02981598	-1.96760613	8.41171187	3.93449999	-1.15807516	10.66217546
5330	53.29000000	8.50355232	-0.73202106	6.03337506	8.43695642	1.47858065	5.02592103	9.96130716	-0.20288345	1.40397763	9.39718664	-1.33136009	-1.41493100	5.70624991	-6.21661603	1.13038148	8.13846948	2.34913161	1.54402036	4.97901866	-1.86763126	8.39362129	4.43292097	-0.16434575	11.16349838
5331	53.30000000	8.57092964	-0.75219346	6.00032193	8.50113426	1.71238536	4.98441930	9.97281849	-0.76889345	1.46506720	8.62306268	-2.26066915	-1.43479206	5.17002937	-7.96205935	1.55592385	7.89918034	2.20473258	1.62453685	5.07824783	-1.75650447	8.48882463	5.19544102	0.38359103	11.70555684
5332	53.31000000	8.62920732	-0.65240562	6.08648750	8.38785881	1.99957208	4.84906210	9.79965309	-0.89048706	1.37589314	8.44826133	-3.12093199	-1.31727449	5.18965921	-8.39156116	1.62850504	7.30516003	1.83637404	1.05223126	5.02620617	-1.89347672	8.35328259	5.93655819	0.23999477	12.14630645
5333	53.32000000	8.64537950	-0.68188472	6.07441709	8.13343823	2.20587140	4.60942124	9.52410171	-0.53968857	1.20634468	8.54224560	-3.54615074	-1.08404693	5.95145092	-7.29592829	1.73334381	6.96453284	1.79205998	0.83687738	5.43578450	-1.75113037	8.25779758	7.20624028	-0.15792895	12.61860403
5334	53.33000000	8.52570845	-0.72093086	6.01484335	8.03805273	2.31747667	4.45044862	9.37864834	0.08827676	0.99695795	8.46596619	-3.64848960	-0.87680669	6.61254268	-5.79228962	2.42788347	6.95879897	0.92790624	-0.50235381	5.39659262	-1.80197064	8.37882448	9.07037021	0.24843424	13.20522950
